<?xml version="1.0" standalone="no"?>
<!DOCTYPE svg PUBLIC "-//W3C//DTD SVG 20010904//EN"
 "http://www.w3.org/TR/2001/REC-SVG-20010904/DTD/svg10.dtd">
<svg version="1.0" xmlns="http://www.w3.org/2000/svg"
 width="2248.000000pt" height="1571.000000pt" viewBox="0 0 2248.000000 1571.000000"
 preserveAspectRatio="xMidYMid meet">

<g transform="translate(0.000000,1571.000000) scale(0.100000,-0.100000)"
fill="#000000" stroke="none">
<path d="M13170 15704 c-824 -38 -1516 -120 -2295 -274 -3827 -756 -7849
-3004 -10120 -5655 -291 -340 -637 -797 -681 -901 -40 -93 -56 -179 -61 -331
-11 -301 46 -582 226 -1123 421 -1260 1041 -2342 1919 -3348 167 -191 624
-652 817 -823 1808 -1609 4205 -2638 7100 -3048 1002 -142 1885 -197 3013
-188 606 5 695 9 1107 42 1862 153 3678 702 5285 1598 504 281 1096 662 1215
783 103 104 155 232 155 384 0 313 -252 616 -563 675 -99 19 -139 19 -234 -1
-100 -20 -155 -46 -336 -156 -2276 -1380 -5114 -1885 -7657 -1363 -1449 298
-2718 913 -3705 1796 -157 141 -457 445 -581 589 -525 611 -924 1293 -1199
2049 -313 864 -460 1808 -442 2841 7 389 17 502 53 628 30 104 91 236 141 304
50 69 453 415 910 780 1994 1598 3697 2391 5509 2568 273 27 804 37 1079 21
1037 -61 1936 -286 2715 -678 1287 -648 2305 -1758 3203 -3490 134 -260 189
-346 298 -473 231 -267 604 -483 1008 -585 382 -96 792 -94 1076 5 310 108
419 295 305 525 -33 68 -51 90 -284 351 -523 585 -790 1026 -1066 1759 -273
727 -712 1489 -1199 2085 -906 1108 -2100 1880 -3560 2300 -618 178 -1280 288
-2041 340 -152 11 -963 21 -1110 14z"/>
<path d="M14155 12289 c-196 -26 -403 -106 -535 -207 -91 -69 -228 -215 -293
-314 -228 -343 -400 -902 -542 -1761 -170 -1029 -72 -2109 271 -2978 107 -272
214 -479 370 -714 118 -180 200 -280 349 -434 280 -288 475 -418 950 -634 200
-92 405 -147 665 -179 165 -20 715 -17 915 5 570 65 1164 215 1670 423 202 83
547 259 711 362 646 405 1021 894 1085 1410 l12 97 -87 225 c-198 507 -408
1010 -832 1986 l-268 617 -26 -30 c-61 -72 -3224 -3493 -3230 -3493 -3 0 -5
15 -3 33 2 17 62 678 133 1467 124 1368 221 2407 311 3342 23 234 39 433 36
441 -6 17 -412 154 -639 216 -168 46 -350 84 -500 107 -127 18 -428 26 -523
13z"/>
<path d="M11776 12129 c-448 -128 -842 -303 -1156 -512 -538 -358 -899 -852
-1046 -1435 -61 -240 -78 -384 -78 -672 0 -265 7 -348 50 -600 133 -776 541
-1650 1154 -2470 413 -551 959 -1120 1515 -1575 690 -566 1473 -1033 2253
-1344 137 -55 346 -131 360 -131 3 0 -62 46 -143 101 -741 505 -1361 1081
-1814 1684 -601 800 -952 1665 -1100 2710 -60 419 -81 757 -81 1290 0 413 10
686 41 1150 19 287 35 484 114 1414 19 228 34 415 32 416 -1 2 -46 -10 -101
-26z"/>
</g>
</svg>
