<?xml version="1.0" encoding="iso-8859-1"?>
<!-- Generator: Adobe Illustrator 16.0.0, SVG Export Plug-In . SVG Version: 6.00 Build 0)  -->
<!DOCTYPE svg PUBLIC "-//W3C//DTD SVG 1.1//EN" "http://www.w3.org/Graphics/SVG/1.1/DTD/svg11.dtd">
<svg version="1.1" id="Capa_1" xmlns="http://www.w3.org/2000/svg" xmlns:xlink="http://www.w3.org/1999/xlink" x="0px" y="0px"
	 width="43.004px" height="43.004px" viewBox="0 0 43.004 43.004" style="enable-background:new 0 0 43.004 43.004;"
	 xml:space="preserve">
<g>
	<g>
		<path d="M40.814,14.494H18.182c-5.525,0-10.16,3.838-11.408,8.984c-0.718-0.731-1.715-1.188-2.819-1.188
			C1.774,22.29,0,24.062,0,26.245c0,2.181,1.774,3.952,3.955,3.952c1.104,0,2.102-0.454,2.819-1.188
			c1.248,5.146,5.882,8.985,11.408,8.985c5.811,0,10.648-4.24,11.585-9.788h11.047c1.209,0,2.189-0.98,2.189-2.191v-9.33
			C43.004,15.476,42.023,14.494,40.814,14.494z M3.955,27.789c-0.852,0-1.544-0.693-1.544-1.544c0-0.853,0.693-1.544,1.544-1.544
			s1.543,0.691,1.543,1.544C5.499,27.095,4.806,27.789,3.955,27.789z"/>
		<path d="M9.681,13.402c0.315,0.586,1.045,0.807,1.632,0.492c0.586-0.314,0.807-1.045,0.492-1.633L8.681,6.439
			C8.366,5.854,7.635,5.632,7.049,5.947C6.462,6.262,6.241,6.994,6.556,7.582L9.681,13.402z"/>
		<path d="M1.925,14.779l6.326,1.908c0.319,0.097,0.646,0.055,0.918-0.092C9.44,16.45,9.657,16.2,9.753,15.881
			c0.192-0.638-0.168-1.31-0.806-1.502l-6.325-1.906c-0.638-0.193-1.31,0.168-1.502,0.805C0.927,13.917,1.289,14.589,1.925,14.779z"
			/>
		<path d="M13.83,13.695c0.319,0.097,0.646,0.054,0.918-0.092c0.271-0.146,0.488-0.396,0.583-0.716l1.907-6.325
			c0.192-0.638-0.168-1.31-0.806-1.502c-0.637-0.191-1.309,0.17-1.502,0.807l-1.907,6.326C12.832,12.832,13.192,13.503,13.83,13.695
			z"/>
	</g>
</g>
<g>
</g>
<g>
</g>
<g>
</g>
<g>
</g>
<g>
</g>
<g>
</g>
<g>
</g>
<g>
</g>
<g>
</g>
<g>
</g>
<g>
</g>
<g>
</g>
<g>
</g>
<g>
</g>
<g>
</g>
</svg>
